<svg id="Layer_1" data-name="Layer 1" xmlns="http://www.w3.org/2000/svg" viewBox="0 0 284.16 296.35"><defs><style>.cls-1{fill:#d7df23;}</style></defs><path class="cls-1" d="M167.23,12.74c20.84,17.6,37.36,39.46,57.45,57.86,11,10.08,22.29,19.91,34.13,29,3.74,2.88,28.45,15.5,12.62,21.56a1.34,1.34,0,0,0-.69,1.77c4.22,7.11,18.3,22.67,3.48,29.21a1.37,1.37,0,0,0-.51,2.08c4.31,5.92,14.62,20.32-2.14,24.5a1.36,1.36,0,0,0-.85,2.17c5,6.51,17.89,29.64-2.1,31.31a1.36,1.36,0,0,0-1.14,1.52c3.25,15.43-5.77,26.4-21.21,27.75a1.36,1.36,0,0,0-1.14,1.52,20.18,20.18,0,0,1-22.19,22.47,1.37,1.37,0,0,0-1.49,1.18c-3.16,14-19.86,22.65-32.77,15.27a1.37,1.37,0,0,0-1.63,0c-13.72,12.86-33.29,16.7-47.88,2.41a1.38,1.38,0,0,0-1.89-.2c-15.27,12-31.61,9.59-39.91-8.49a1.35,1.35,0,0,0-2.07-.51c-18.84,15.34-31.75-10.63-34.88-25.91a1.36,1.36,0,0,0-1.86-1C43,256.75,32.19,237.54,32.9,224.55c0-.79-.63-1.7-1.52-1.49-19.16,4.64-18.59-19.89-15.23-31.89a1.36,1.36,0,0,0-1.43-1.82c-19.57,2.25-5.49-27.47-2.32-33.62.48-.94-.52-1.92-1.44-1.81q-12.77-11.13-1-20.17a1.37,1.37,0,0,0-.06-2.12c-20.76-19,46.74-62.76,59.53-72.51C94.58,40,132.88-16.73,167.59,13.55c1.3,1.14,2.87-1,1.57-2.16-22.89-20-47.89-2.62-66.88,14.12C82.8,42.69,64.12,59.32,43.68,75.38c-11.93,9.37-43,30.49-40.46,49.17a14.59,14.59,0,0,0,3.25,7.54c.67.84-3.87,6.94-4.45,8C-1,146-1.47,156.06,6.89,157.06c3.18.37-1.71,8.26-2.95,11.86-1.44,4.19-3,9.57-2.36,14C2,186,12.12,196.81,12.87,193c-1.95,9.87-2,20.34,3.43,29.08,1.62,2.59,5.09,4.24,8,4.59,7.89.94,4.4.45,6.91,7.68,3.19,9.14,8.58,16.77,18.33,19.05,4.63,1.08,8-3.93,9.51,1.56a51.28,51.28,0,0,0,7.15,15.69c5.23,7.48,11.28,13.17,20.83,12.22,2.9-.3,7.49-5.6,10-1.53,3.92,6.22,8,10.18,14.92,12.8,8,3,16.68-1,23.34-5.06,3.77-2.31,10,3.53,13,5.06,5.28,2.62,11.6,2.35,17.28,1.84,11.18-1,17.76-9.88,28.58-8.89,8.92.82,19.62-2,25.16-9.73,1.44-2,3.91-9.19,7.15-8.87,4.34.43,8.5-2.33,11.92-4.51,9.62-6.12,6.18-18.48,17-21.42,9.18-2.51,14.11-11.26,15.73-19.9,1-5.55-.7-7.35,4.94-9.22,3-1,4.43-4.17,5.46-6.83,2.58-6.75-1.81-17.1-5.39-22.65-2.26-3.5,6.74-7.25,7.54-13.43,1.13-8.67-9.77-13.38-2-19.74,5.49-4.52.57-13.88-1.83-18.3-1.09-2-6.62-8.07-3.36-10.48,2.71-2,3.8-3.16,3.78-6.49,0-6.64-11.26-12.72-15.75-15.6-37.2-24-62.31-61.18-95.69-89.38-1.32-1.12-2.9,1-1.58,2.17Z"/><path class="cls-1" d="M245.25,239c-25.66-32.15-39.62-70.6-53.22-108.94C177.45,89,163.3,48.33,153.22,5.81c-.4-1.67-3.05-1.29-2.66.39,9.65,40.64,22.87,79.65,36.88,119,14.44,40.52,28.58,81.54,55.72,115.57a1.34,1.34,0,0,0,2.09-1.69Z"/><path class="cls-1" d="M186.87,279.55c-21.35-42.6-25.09-90.76-29.74-137.45-4.52-45.32-14.5-90.23-12.71-136,.07-1.72-2.6-2-2.66-.31-1.81,46,8.08,91.16,12.71,136.69,4.77,47,8.46,95.29,29.95,138.14.77,1.54,3.23.48,2.45-1.07Z"/><path class="cls-1" d="M139.3,280.21c-6.29-52.57-2.74-106.09-1.4-158.88,1-38.25-.43-77.93,7.34-115.58.35-1.7-2.32-2-2.66-.32-7.78,37.63-6.45,77.35-7.34,115.59-1.24,53.05-4.92,106.72,1.4,159.57a1.34,1.34,0,0,0,2.66-.38Z"/><path class="cls-1" d="M96.86,272.74c.78-49.63,12.47-97.86,22-146.32,7.9-40.21,3.32-85.5,24.25-122.14.85-1.48-1.31-3.09-2.17-1.58-19.35,33.88-17.36,75.2-22.81,112.71-7.66,52.71-23.09,103.31-23.92,157,0,1.72,2.64,2,2.66.32Z"/><path class="cls-1" d="M225.36,267.24c-14.12-17.23-22.5-37.94-32.84-57.48-13.7-25.86-21.43-53.63-28-82C162.22,118,146.86,5.81,149.37,5.59c1.73-.15,1.33-2.81-.38-2.66l-2.82.26A1.36,1.36,0,0,0,145,4.71c7.29,45.49,9.07,91.54,19.88,136.48,5.82,24.16,13.56,47.6,25.15,69.64,10.4,19.77,18.95,40.69,33.21,58.1a1.34,1.34,0,0,0,2.09-1.69Z"/><path class="cls-1" d="M272.31,214.2c-31.51-20.81-48.3-58.32-63.2-91.67-17.4-38.95-32.76-78.74-48.72-118.29-.64-1.6-3.1-.52-2.45,1.08,16.55,41,32.61,82.25,50.66,122.65,14.45,32.32,31.67,68.29,62.14,88.4,1.43.95,3-1.21,1.57-2.17Z"/><path class="cls-1" d="M274.8,181.89c-29.3-26.72-50.12-59.46-69.11-94-14.17-25.73-21.82-55-39.34-78.84-1-1.39-3.11.3-2.09,1.69,20.8,28.34,30.83,64.24,48.23,94.78,16.54,29,36,55.94,60.73,78.53,1.28,1.17,2.85-1,1.58-2.17Z"/><path class="cls-1" d="M277.9,153.22c-49-34.36-73.5-90.41-105.41-139-1-1.44-3,.25-2.09,1.69,32,48.77,56.76,105,105.92,139.51,1.41,1,3-1.17,1.58-2.17Z"/><path class="cls-1" d="M273.63,121.62C229.89,97.9,204,51.16,173.31,13.83a1.34,1.34,0,0,0-2.09,1.69c31.07,37.77,57.14,84.58,101.44,108.59,1.51.82,2.48-1.68,1-2.49Z"/><path class="cls-1" d="M60,250.44c-1-19.88,11.28-38.16,17.13-56.59q10.77-34,21.56-67.95C111.36,85.85,119.7,42,141.82,5.81c.89-1.46-1.27-3.06-2.17-1.58C117.37,40.68,109,84.6,96.16,124.91c-8.34,26.26-15.66,53.14-25.29,79-5.8,15.53-14.4,29.88-13.57,47,.09,1.73,2.75,1.33,2.66-.38Z"/><path class="cls-1" d="M30.54,223.62c0-16,9.58-31.43,16.59-45.38,10-19.84,18.71-40.25,28.9-60,18.68-36.19,38.7-72.57,60.3-107.12.91-1.45-1.25-3.05-2.17-1.58-20.61,33-39.25,67.6-57.57,101.9C65.08,133,55.38,155.35,44.64,177.26c-7,14.32-16.8,29.58-16.76,46,0,1.72,2.67,2,2.66.32Z"/><path class="cls-1" d="M16.15,191.17C29.79,154.59,52.48,122.68,74,90.46c19.89-29.72,41.61-57.09,64.37-84.62,1.1-1.34-1.07-2.91-2.17-1.59-24,29-46.59,58.05-67.55,89.38-20.66,30.87-42,61.53-55,96.56a1.34,1.34,0,0,0,2.49,1Z"/><path class="cls-1" d="M9.53,157.36c21.23-21.46,36.68-49.84,55-73.86C86,55.31,111.84,33.34,135.72,7.5c1.18-1.27-1-2.84-2.17-1.58C112.87,28.3,89.29,46.86,70.61,71.11c-11.16,14.5-22.19,29.08-32.86,43.94-9.77,13.6-18,28.24-29.9,40.22-1.21,1.22.46,3.32,1.68,2.09Z"/><path class="cls-1" d="M10.44,132.91C25.67,108,47.69,88.44,67,66.78,87.1,44.12,111.78,26.59,135.66,8.16,137,7.1,135.34,5,134,6.07c-20.88,16.12-43.19,31.4-61.4,50.64C50.34,80.2,25.23,103.63,8.27,131.33c-.9,1.46,1.26,3.06,2.17,1.58Z"/><path class="cls-1" d="M265,103l-5.16,10.55a.46.46,0,0,0-.17.69c4,4.45,5.93,26.63-4.55,23.47-.39-.12-.84.34-.51.69a14.69,14.69,0,0,1,3.35,6.86c.94,3.69,1.27,14.8-7.46,12a.45.45,0,0,0-.58.59c4.3,10.74-4,25.46-15.54,14.84-.35-.32-.84.16-.68.53,6.56,15-10.33,21.2-20.3,11.66a.45.45,0,0,0-.76.46c5.57,19.23-17.94,20.54-28.77,11.34-.37-.31-.82.15-.68.54,4.84,13.11-12.53,30.39-19.29,12.81-.19-.49-.89-.24-.85.24,1.4,17.06-23,12.08-26.8.12a.45.45,0,0,0-.83,0c-2.18,8.52-9.47,15.25-18.57,15.34-9.43.09-12.8-10.21-14.28-17.61a.45.45,0,0,0-.86-.1c-5.25,12.69-24.38,1.61-25.33-8.47a.45.45,0,0,0-.8-.2c-5.1,8.06-15,8.24-22.3,3.3-7.56-5.09-5.78-16.5-4.63-24.06a.45.45,0,0,0-.73-.4c-12.27,10.41-22.23-3.54-20.45-15.72a.45.45,0,0,0-.73-.4c-7.54,7-14-3.53-12.32-10.49a.46.46,0,0,0-.18-.42C7,145.41,10,135.7,13.15,128.86a.45.45,0,0,0-.15-.53c-5.24-3.73-6.9-17.13-2-21.82.41-.39-.15-1.09-.56-.7-3.28,3.15-3,8.43-2.75,12.63A19.42,19.42,0,0,0,10.34,127c1.76,3,.43,4.31-.38,7.75a24.74,24.74,0,0,0-.38,11.72c.39,1.69,3.94,5,3.55,6.57-.94,3.84,1.6,9.87,5.24,11.61,1.33.64,2.89,1.34,4.42.88,2.75-.83,3.26-2.78,3.42.55.3,6.07,2.47,11.56,7.38,15.31,3.15,2.42,8.1,2.32,11.36.17,4.42-2.9,1.65,5.09,1.82,7.74.32,4.88,1.29,8.64,4.26,12.54,3.73,4.9,11.14,5.64,16.66,4.61a12.16,12.16,0,0,0,5.93-3.1c2.94-3.15,2.34-.14,4.1,2.68,2.93,4.72,8.9,7.38,14.14,8.31,2.12.37,10.75-1.26,10.18-4.1,2.88,14.34,14.93,21.16,27.22,11.72a19,19,0,0,0,5.66-7.26c1.57-3.87,2.16.27,4,2.42,3.53,4.11,9.56,5.35,14.68,5.09a11.26,11.26,0,0,0,9.9-6.74c1.11-2.46-.63-4.93,1.07-1.6a9.25,9.25,0,0,0,4.23,4.2c9,3.45,15.75-7,16.38-14.74.08-1,0-4.29-.65-4.86a24.54,24.54,0,0,0,24,2.94c4.09-1.92,5.79-5.95,6-10.19a30.28,30.28,0,0,0-.47-4.39,19,19,0,0,0,7.88,3.69c3.73.82,8.91-.31,11.49-3.29,2.28-2.63,4.51-10,2.14-12.15,9.86,9.07,17.49-5,16.32-13.77-.64-4.9,3.17-.76,5.43-4.55,2.78-4.63,2.13-10.2.4-15.11-.65-1.85-2.9-2.73-.28-2.65,1.34,0,2.49-1.05,3.33-1.91,3.5-3.55,3.17-10.55,2.77-15.06s-3.84-6.77.32-9.62c3.31-2.27,3.07-6.56,1.87-9.78-.2-.54-1-.19-.82.35Z"/><path class="cls-1" d="M240,81.57c1.68,18.89-14.12,32.4-32,32-14.11-.32-14.69,18.49-25.52,24-8.92,4.56-17.68-5.11-26.73-4.53-3.66.24-6.62,3.06-9.26,5.28-5,4.2-10.21,8.73-16.86,9.74-14.65,2.23-11.89-22.39-25-20.55-5.09.71-9.32,3.36-14,5.23-10.46,4.15-15.45-.93-19.12-9.89-3.08-7.53-5.34-13.1-14.2-12.91-3,.07-5.85.49-8.86-.33-5.92-1.62-5.55-9.87-6.75-14.47s-9.59-6-8.16-11.29c.15-.55-.68-.89-.83-.33-.53,2-.21,5.44,1.78,6.64,3.94,2.37,6.63,5.4,7.4,10.23.37,2.34.75,5.19,2.36,7a10,10,0,0,0,8.5,3.64c3.52-.13,7-.66,10.4.46,3.95,1.27,6.09,8.14,7.54,11.66,3.41,8.33,7.79,14.34,17.72,11.18a88.81,88.81,0,0,0,10.21-4.29c10-4.64,13.88,2.39,17.11,9.32,1.84,4,6.14,8.78,10.77,9.37,12.71,1.62,18.32-12.59,29.41-14.85,10.08-2,18.44,10.39,28.78,3.52,7.67-5.09,9.16-14.18,15.38-20.55,3.74-3.83,10.71-2.26,15.56-2.63a24.74,24.74,0,0,0,8.4-2.69c11.15-5.24,18-18.14,16.89-30.15-.05-.58-.93-.45-.88.12Z"/><path class="cls-1" d="M231.93,75.23c.63,13.86-10,29.47-25.06,24.9-12.08-3.66-17.07,1.6-24.11,10.63-3.73,4.79-7.7,8.31-13.76,9.5-6.34,1.25-11.51-3.47-16.6-6.37C140,106.8,134.72,125.64,122.69,126c-8.87.24-13.07-14-17.9-19.14-2.89-3.06-7.06-.45-9.83,1.19-4.79,2.84-9.32,4.59-14.73,2.27-8.41-3.61-.78-19.24-12.56-19.44-3.86-.06-6.52,3.83-10.5,2.47-5-1.72-6-13.2-8-17.35.06.12-.59.59-.53.72,2.7,5.55,2.9,13.3,8,17.35,2.57,2,9.06-2.5,12.12-2.45,5.15.09,5.84,6.63,6.45,10.34,1.07,6.46,3.57,10.14,10.52,10.26,4.73.08,8.89-4,13-5.69,5.88-2.45,9.34,6.43,11.64,10.14,6.63,10.72,13.93,12.44,23.83,4.16,5.23-4.36,7.89-9.61,15.4-7.21,7.08,2.28,10.78,7.85,18.83,7.4,12.61-.71,16-17.79,27-21.59,5.52-1.92,11.74,2.41,17.3,2.61s10.66-4.66,13.76-8.71a28.5,28.5,0,0,0,5.91-18.78c0,.23-.54.49-.53.72Z"/><path class="cls-1" d="M213.82,58.16c-1.85,5.68-5.63,9.69-10.34,13.16-7,5.15-12.93,2.84-20.34,1.34-6.16-1.25-10,0-14.65,4.15-8.49,7.52-16.26,17.4-26.34,3.69-2.9-3.93-7.22-10.29-13.22-8.28-8,2.67-14.54,14.55-23.79,11.63-4.64-1.46-6.1-8-9.53-10.94s-6-2.59-9.85-.6c-5.27,2.74-7.37-6.74-9.89-9.16s-6.38,4.63-7-4.7c0-.57-.92-.44-.88.13.11,1.8-.08,3,1.88,4,4.19,2.24,5.57,3.71,8.39,8.38,4.63,7.67,11.46-3,17.53,3.42,3.23,3.42,4.61,8,9,10.26,5.66,2.92,12.81-3.59,16.58-6.88,8.29-7.23,15.94-2.34,21.47,5.18,1.77,2.42,4.38,4.79,7.44,5.31,7.82,1.36,12.34-4.24,17.35-9.42,5.24-5.42,10.33-6.65,17.69-4.71,4,1.06,7.53,1.84,11.68,1.17,8-1.29,15.25-9.54,17.63-16.85.17-.54-.66-.88-.84-.32Z"/><path class="cls-1" d="M199.78,42.92c-1.25,9.18-8.36,11.76-16.51,11.14-2.31-.18-4.51-1-6.81-1.21C173.2,52.57,170,57,168,58.91c-4.83,4.66-9.12,3.92-15.39,3.62-7.09-.33-11.91,7.06-18.54,1.27-4-3.5-6.67-8.91-12.15-3.77-4.2,4-7.89,10.6-14.1,5.17-5.12-4.49-5.73-8.53-13.73-7.68-5.59.6-9.66-7.69-12.51-11.31,0,.06-.58.66-.53.72,4,5,7,11.89,14.36,11.11,8.6-.91,9,8.83,16.35,9.92,7.87,1.18,8.82-13.19,17.22-8.31,2.28,1.32,3.86,4.25,5.84,6,3.7,3.23,8.57.4,12.08-1.48,6.1-3.27,12.73,1.4,18.78-3,3.2-2.31,5.34-5.69,9-7.4,2.58-1.21,8.21,1,10.89,1.21,8.25.63,13.77-5.37,14.78-12.79,0,.25-.49.46-.53.72Z"/><path class="cls-1" d="M191.82,34.58c-2.48,7-9.59,9.17-16.2,7.48a8.48,8.48,0,0,0-2.89-.49c-3.48.67-6,3.75-8.56,6-13.11,11.38-6.72-2.09-13.24-.16-6.16,1.83-11.51,11.78-17.89,2.1A5.44,5.44,0,0,0,127.87,47a22.49,22.49,0,0,0-4.28,2.6c-5,2.55-6,.34-8.39-1.86-1.93-1.74-4.94-2-7.36-1.71-6.6.83-9.83-2.59-13-7.44-.31-.48-1,.08-.69.56,1.79,2.76,4.43,7,7.82,8,5.26,1.61,10.45-.84,15.06,3.63,1.78,1.73,5,.21,6.9-.4,4.77-1.57,7.66-1.19,10.69,3a5.87,5.87,0,0,0,4,2c4.11.49,6.32-3.2,9-5.62,3.86-3.47,10.13,3.51,14.65.22,2.94-2.14,7.58-7.83,11.62-7.44,3,.29,5.69,2,8.8,1.55,5.77-.77,8-3.85,9.92-9.22a.45.45,0,0,0-.84-.32Z"/><path class="cls-1" d="M183.37,26.85c-3.31,9.84-15,4-21.67,6.1-5.65,1.73-3.35,11.25-14.13,5.92-1.8-.89-4.09-2.51-6.33-1.42-6.34,3.1-6.53,3.54-13.41.47-8.54-3.81-17.19.36-25.4-6.19-1.35-1.08-2.93,1.09-1.58,2.17,5,4,13.19,8,19.71,5.77,8.25-2.83,7.3,5.5,12.57,4.72,5.05-.75,7.83-5.89,13.47-3,3.14,1.6,4.81,2.77,8.57,1.13,7.7-3.37,10.33-8.63,19.72-6,6.64,1.84,9.14-3.15,11-8.63.55-1.64-2-2.63-2.5-1Z"/><path class="cls-1" d="M179.48,22.26c-6.39,11.08-12.71,5.55-22.87,4.61-8.75-1.05-9.28,8.93-18.57,6.64-3.94-1.2-4.78-4.25-9-3.87-5,.74-3,4.25-9.09,1.53-2.94-1.16-4.37-4.44-7.72-5.41-2.77-.74-6,.69-8.22.17C112.28,9.14,130.21,3.27,143.58.36c13-2.72,29.89,10.38,36.31,21.72"/><path class="cls-1" d="M257.92,99c1.66,9-10.41,12.66-12.83,20.93-2.94,10,4.51,19.93-9.71,24.52-3.09,1-6.43,1-8.5,3.9-4.45,6.17-2.15,14.46-7.54,20.18-7.39,7.85-17.94-.49-26.55,3-11.58,4.64-11.46,23.21-28.24,18-4.25-1.34-7.6-3.86-12.14-4.39-5.11-.6-9.31,5.24-12.56,8.24-6,5.53-12.93,5.88-18.2-.19-4-4.55-6.43-10-12.48-12.11-4.15-1.46-9.37,1.11-13.25,2.35A15.54,15.54,0,0,1,81,181c-8.16-6-4.73-19-13.66-24.15-3.22-1.86-8.34-.09-11.7.4-5.49.81-9.24-2.46-11-7.37-3-8.22.29-16.78-10.93-18.37-12.69-1.79-4.73-12.57-10-19.83-3.76-5.23-7.21-1.72-6.18-9.69,0,.26-.49.46-.53.72-.28,2.17-1.5,6.06,1.48,6.42,3.18.38,5.44,4.15,6.24,6.8,1.36,4.48-.91,8.37,1.36,12.9,1.75,3.5,7,3.3,10.25,3.95,8.9,1.82,5.93,15.73,9.65,21.76,5.2,8.45,17.82-1.28,24.65,6.06,3.13,3.37,3.4,10,5.06,14.18a17.13,17.13,0,0,0,8.31,9.15c9.13,4.77,18.13-5.65,27.28-1,5.13,2.6,7.75,9,11.67,13,6.58,6.64,15.28-.65,20.19-5.55,8.76-8.75,15.55-.7,25.22.89,5.79.95,10.82-3.86,14-8.09,4.19-5.64,7.68-11.83,15.33-12,8.52-.15,16.31,4.8,22.79-3.68a18.88,18.88,0,0,0,2.48-4.57c1.64-4,1.44-8.7,3-12.85,1.89-5.2,11.51-5.15,15.49-8.44,8.34-6.9.44-20,7.08-27.65,4.39-5.06,11.39-7.89,10-15.68,0,.2-.56.52-.53.72Z"/><path class="cls-1" d="M273,110c-.45,5.83-1.41,11.58-1.48,17.44-.06,4.81,2.48,9.1,3.1,13.82.79,5.95-6.14,9.16-9.16,13.28-3.83,5.22-3.49,10.87-3,17.08.54,7.06-.43,12.65-6,17.76-2.62,2.4-5.19,4.39-7.34,7.24-1.46,2-2,4.4-2.55,6.74-1.22,5.12-1.71,9.06-6.42,12.25-5.2,3.53-11.51,2.64-16.22,7.48-7.25,7.45-4.72,22.34-17.45,24.3-7.77,1.2-13.21-2.15-19.44,4.55-5.72,6.14-10.31,15.27-19.87,15.1-8.73-.15-10.62-11.08-17.68-13.33-4-1.29-10.16,3-13.49,4.65-5.86,2.95-11.31,3-16.57-1-5.94-4.51-9.66-15-18.64-11.42-7.45,2.94-15,7.64-22.58,2.38-6.34-4.37-6.48-13.58-10.22-19.63-1.49-2.41-4.76-2.3-7.2-2.43-5.65-.29-10-1.29-14.12-5.38-5.1-5.12-5.6-13.76-12.15-17.44-7.84-4.4-14.52-2.25-16.68-12.78C16,182,12.91,175.1,14.69,166.28c1-4.93-2.21-8-5.16-11.36-2.81-3.22-3.81-7.63-5.94-11.26.06.1-.59.62-.53.72,2.17,3.7,3.45,7.72,5.93,11.26,2.92,4.14,5.65,5.86,5.17,11.36-.43,4.93-1.46,7.8.19,12.77,1.78,5.33,2.3,11,4.13,16.28,2.58,7.42,14.15,5.51,18.93,10.88C44.27,214.66,44,224.56,56,226.64c8.9,1.54,11.42.5,14.46,10.25,2.23,7.18,6.06,13.92,14.17,14.61,7.64.65,14.18-7.23,21.37-5.43,3.9,1,7.35,6,9.78,8.86,4,4.67,8.12,6.88,14.31,6.12,7.85-1,16.19-11.63,23.06-3.38,6,7.16,12.52,13.38,21.71,7.53,7-4.49,9.88-14,17.88-16.94,7.6-2.77,14.14,2.5,20.8-4.19a17.62,17.62,0,0,0,2-2.63c2.14-3.12,3.17-6.91,4.36-10.45,2.66-7.9,7.22-10.74,14.8-12.84,14.47-4,8.94-17.6,19.26-26.46,2.07-1.77,4.39-3.47,5.88-5.8,3.05-4.76,3.45-9.4,3.12-15-.51-8.7-.18-14.19,6.82-20.44a15.83,15.83,0,0,0,3.37-3.88c2.94-5.28,1.53-9.2-.31-14.63-2.38-7,.11-15.5.67-22.67,0,.25-.51.47-.53.72Z"/><path class="cls-1" d="M274.06,123.69c1.08,6.09,2.55,11.88,2.28,18.12-.21,4.82-3.14,9.4-3.77,14.23-1,7.63,2.91,11.25-3.38,18.12-2.14,2.33-4.51,4.22-6.43,6.76A16.26,16.26,0,0,0,260,188.5c-.68,4.41.07,8.92-.6,13.36-1.14,7.62-8.56,9.91-13.72,14.08a12.73,12.73,0,0,0-2,2.39c-2,2.94-2.43,6.48-2.82,9.91C240,235.66,236.46,240,229.25,242c-4.37,1.21-9,1.69-11.87,5.64-3.84,5.23-4.61,12.29-11.25,14.84-3.35,1.29-7.76-1-11.14-1.26-4-.32-6.74,2.94-9,5.65-3.91,4.64-7.65,6.94-13.75,6.2-5.84-.71-9.69-2-14.92,1.58-4.11,2.84-6.49,5.59-11.88,5.06-3.66-.35-6.75-4.8-9.15-7.14-8.4-8.17-17.1,5.86-26.61.26-3.72-2.2-5.77-7.42-8.68-10.52-3.68-3.93-9.42-1.18-13.71-.2-11.21,2.54-9-16.41-20.71-15.54-3.32.26-5.28,1.27-8.3-.74-4.08-2.72-4.14-8.69-5.88-12.73-1.27-3-4.48-3.19-7.19-4-5.91-1.82-6.43-3.6-7.67-9.78-.66-3.32-3.45-4.86-6.46-5.42a12.76,12.76,0,0,1-8.42-4.8c-2.58-3-3.53-7.41-5.89-10.67a31.56,31.56,0,0,1-4.86-10.12,90.72,90.72,0,0,1-3.53-24.76c-.09-4.4,2-6-2.27-9.12a7.34,7.34,0,0,1-2.37-9.34c-.13.26-.4.46-.53.72-2.18,4.55.51,8,4.25,10.7,2.33,1.69.44,10.45.56,13.18.44,10.31,2.18,20.81,8.22,29.46,2.78,4,4.19,8.68,7.36,12.4,2.56,3,6.58,2.64,9.94,3.9,4,1.49,3.88,7.59,4.89,10.9,1.11,3.63,7.6,4.11,10.7,4.76,7.13,1.5,2.75,16.32,12.67,16.89,3.38.2,5.88-1.12,9.36-.13,4.54,1.29,6.14,9.66,8.8,13,3.3,4.14,9.78,1.14,13.78.23,5.3-1.2,8.38,3.57,10.89,7.28,2.91,4.28,6,7.12,11.37,7.11s9.17-5,14.85-4.89c8.93.22,9.47,13.46,20.54,8.85,4.41-1.84,6.6-5.75,11.59-6.77s9.85,2,15.06.81c4.53-1.05,7.56-6.31,10.55-9.31s7.58-2.19,11.31-1.21a10.12,10.12,0,0,0,11.48-4c4.17-5.68,4.73-12.11,12.16-15,5.38-2.07,10.87-1.75,14.64-6.9,3-4,3-8.66,3.76-13.45,1.36-9,10-9.14,14.63-15.32a20.2,20.2,0,0,0,3.88-11.58c.42-7.27-.79-12.77,4.85-18.65,1.68-1.74,3.68-3.19,5.15-5.14,2.95-4,3.6-7.31,2.93-12.4-.82-6.25,1.23-11.16,3-17,2-6.58-.64-14.07-1.79-20.56,0,.2-.57.52-.53.73Z"/><path class="cls-1" d="M252,94.3c-.1,11.67-12.32,12.91-18,21.16-4.77,7,.77,16.4-6.06,22.49-4,3.56-9.58,2.24-13,6.9-4,5.37-6.39,10.47-13.21,12.36s-12.57-.74-17.54,5.95c-3.63,4.89-6.09,9.19-12.92,8-3.89-.66-6.06-3.78-10.3-3.7-5.16.09-9.2,6.92-12.49,10.06-9.05,8.68-14.42-3.65-21.2-7.31-5.78-3.13-12.47,4-16.8,6.81-7.06,4.55-10.41-3.13-12.49-8.8-1.71-4.7-4.58-7.07-9.69-6.68-5.38.39-6.44,4.39-11.54-.07-2.74-2.4-2.28-9.09-3.13-12.36-1.15-4.37-5.34-4.78-9.06-4.52C53,145.44,57,130.3,48.33,126.57c-4.64-2-7.47,2-10.67-3.63-2.45-4.32.59-8.62-3.85-12.54-3-2.67-6.2-3.34-8.7-6.87C23.37,101.1,23,97,22,94.16c.06.16-.59.56-.53.72,2.37,7.05,3.47,11.67,10.44,15.37,4.32,2.3,4.77,6.21,4.84,10.71.13,7.58,5.95,5.65,11.06,6.33,9.43,1.26,4,16.48,14.5,18.08,4.2.64,6.59-1,9.9,2.64,3.11,3.41,1.67,10.14,4,14.21s6.65,2,9.73.62c4.49-2.05,8.4.27,10.65,4.12,3.38,5.76,4.57,15.66,13.33,10.81,5.12-2.83,9-8.05,15.39-7.27,3.8.46,6.46,4.51,8.63,7.19,3.83,4.73,9.57,3.78,14,.58,3.84-2.78,5.94-7,10.21-9.38,3.84-2.16,7.5.54,10.75,2.31a9,9,0,0,0,11.62-2.86c5.47-7.45,8.7-9.44,17.81-10a15.5,15.5,0,0,0,12.07-6.53c4-5.49,6.05-9.3,12.85-11.14,3.46-.93,5.4-2.94,7.33-5.61,3.21-4.45,1.28-11.8,2.4-16.92,1.76-8.06,11.79-9.23,16.24-15a14.49,14.49,0,0,0,3.26-9.57c0,.24-.52.47-.53.72Z"/></svg>